<?xml version="1.0" standalone="no"?>
<!DOCTYPE svg PUBLIC "-//W3C//DTD SVG 20010904//EN"
 "http://www.w3.org/TR/2001/REC-SVG-20010904/DTD/svg10.dtd">
<svg version="1.0" xmlns="http://www.w3.org/2000/svg"
 width="512.000000pt" height="512.000000pt" viewBox="0 0 512.000000 512.000000"
 preserveAspectRatio="xMidYMid meet">
<metadata>
Created by potrace 1.14, written by Peter Selinger 2001-2017
</metadata>
<g transform="translate(0.000000,512.000000) scale(0.100000,-0.100000)"
fill="#000000" stroke="none">
<path d="M2205 5094 c-234 -30 -368 -65 -512 -136 -163 -79 -260 -173 -334
-324 -27 -55 -51 -109 -53 -120 -3 -10 -12 -39 -21 -64 -21 -59 -71 -270 -80
-340 -4 -30 -9 -64 -11 -75 -25 -124 -24 -663 1 -860 2 -16 7 -57 10 -90 18
-179 77 -506 122 -683 19 -73 42 -97 79 -80 35 16 34 14 48 233 10 145 19 310
20 333 0 12 2 22 6 22 3 0 22 -33 42 -73 21 -39 55 -98 75 -129 35 -53 38 -63
37 -121 -1 -57 -6 -70 -42 -123 -55 -82 -93 -160 -140 -294 -36 -101 -95 -298
-106 -355 -3 -11 -16 -76 -29 -145 -38 -190 -40 -208 -28 -238 12 -28 35 -42
252 -156 70 -37 95 -54 92 -66 -2 -9 4 -26 14 -39 14 -17 30 -23 76 -25 31 -2
59 -5 62 -7 2 -3 6 -187 9 -409 4 -388 8 -440 27 -440 8 0 23 -47 33 -105 32
-182 25 -175 183 -175 104 0 126 3 141 18 9 9 33 70 52 134 25 84 41 120 55
128 13 7 44 70 89 183 39 95 82 200 98 235 l28 63 62 -3 62 -3 94 -225 c51
-124 104 -236 117 -250 13 -15 34 -63 50 -115 36 -123 45 -144 66 -155 10 -6
72 -10 138 -10 146 0 141 -4 173 156 13 68 28 117 40 130 17 19 19 49 24 429
3 225 7 412 9 416 3 4 25 6 49 4 58 -3 87 12 100 53 10 28 26 41 92 76 167 89
239 130 251 145 16 19 12 56 -23 246 -43 234 -128 513 -204 670 -42 86 -51
101 -91 155 -22 30 -25 44 -24 100 2 56 8 73 39 120 20 30 53 88 74 127 20 40
40 73 43 73 3 0 5 -12 6 -27 0 -27 8 -161 19 -328 14 -217 13 -213 43 -232 14
-8 24 -8 42 0 24 13 37 46 64 172 25 111 54 266 61 325 2 19 6 42 9 50 2 8 7
35 10 60 3 25 8 56 10 70 2 14 7 57 11 95 3 39 8 78 10 89 25 133 24 699 -1
857 -2 13 -9 58 -15 99 -38 238 -127 492 -213 605 -142 187 -404 305 -777 349
-147 17 -580 17 -715 0z m-187 -1606 c54 -79 107 -155 117 -171 l18 -28 -27
11 c-36 13 -84 7 -134 -19 -198 -101 -141 -430 78 -446 125 -9 231 99 226 231
-1 47 1 54 21 59 29 7 37 38 37 148 0 48 1 87 3 87 2 0 20 -26 40 -57 81 -129
224 -290 378 -428 101 -91 106 -94 132 -95 41 0 53 34 53 160 1 110 2 114 16
86 16 -29 71 -192 79 -236 13 -67 36 -243 40 -314 l6 -81 -60 -37 c-86 -54
-177 -95 -271 -124 -77 -23 -284 -28 -375 -8 -246 52 -476 214 -648 455 l-47
67 0 148 c0 168 -13 119 139 533 39 107 71 195 71 197 0 14 20 -12 108 -138z
m141 -223 c16 -8 38 -33 49 -56 19 -39 20 -45 6 -78 -26 -62 -71 -83 -127 -56
-39 18 -57 50 -57 100 0 39 39 91 73 98 12 2 23 5 25 6 2 0 16 -6 31 -14z
m-203 -951 c97 -72 184 -118 295 -157 l93 -33 29 -94 c16 -52 29 -99 29 -105
1 -12 -12 -108 -18 -139 -2 -12 -6 -41 -9 -66 -3 -25 -7 -56 -10 -70 -2 -14
-9 -61 -15 -105 -7 -44 -13 -87 -15 -95 -7 -35 -19 -136 -17 -142 1 -4 -3 -19
-8 -33 l-10 -25 -280 0 -280 0 0 629 0 629 73 -70 c39 -39 104 -95 143 -124z
m1419 -1051 c-3 -10 -69 -13 -284 -13 l-279 0 -7 53 c-4 28 -8 59 -10 68 -1 8
-6 42 -10 74 -3 33 -8 62 -10 65 -2 3 -6 34 -10 70 -4 36 -8 67 -10 70 -2 3
-6 34 -10 70 -4 36 -8 67 -10 70 -1 3 -6 32 -10 65 -3 33 -8 61 -9 63 -2 1 11
49 29 105 l32 102 77 26 c164 56 330 162 458 294 l63 64 3 -617 c1 -339 0
-623 -3 -629z m-1740 568 c-1 -258 -3 -472 -6 -475 -2 -3 -56 23 -119 58 -123
67 -120 64 -106 141 50 273 126 549 191 691 14 30 25 60 25 67 0 9 2 9 8 0 4
-6 7 -223 7 -482z m1876 447 c45 -88 137 -377 163 -512 2 -11 9 -42 15 -69 6
-26 14 -64 17 -85 3 -20 9 -53 13 -72 4 -19 7 -42 6 -50 0 -12 -213 -138 -235
-140 -3 0 -5 218 -5 485 0 267 1 485 2 485 2 0 12 -19 24 -42z m-1361 -2006
c0 -2 -10 -37 -22 -78 -23 -80 -19 -77 -102 -75 -55 1 -56 2 -72 117 l-6 41
101 -1 c55 0 101 -2 101 -4z m1016 -37 c-18 -115 -18 -116 -67 -117 -89 -1
-84 -4 -107 76 -12 41 -22 76 -22 78 0 2 45 4 101 5 l101 0 -6 -42z"/>
</g>
</svg>
